<svg width="83" height="83" viewBox="0 0 83 83" fill="none" xmlns="http://www.w3.org/2000/svg">
<path d="M20.4715 65.8303C22.0362 65.8303 22.0388 63.3987 20.4715 63.3987C18.907 63.3987 18.9044 65.8303 20.4715 65.8303Z" fill="url(#paint0_linear_86_139)"/>
<path d="M41.5002 65.8303C43.0649 65.8303 43.0675 63.3987 41.5002 63.3987C39.9357 63.3987 39.933 65.8303 41.5002 65.8303Z" fill="url(#paint1_linear_86_139)"/>
<path d="M62.5291 65.8303C64.0938 65.8303 64.0964 63.3987 62.5291 63.3987C60.9644 63.3987 60.9618 65.8303 62.5291 65.8303Z" fill="url(#paint2_linear_86_139)"/>
<path d="M25.8617 42.9032C27.4264 42.9032 27.429 40.4716 25.8617 40.4716C24.2971 40.4716 24.2945 42.9032 25.8617 42.9032Z" fill="url(#paint3_linear_86_139)"/>
<path d="M41.5002 42.9032C43.0649 42.9032 43.0675 40.4716 41.5002 40.4716C39.9357 40.4716 39.933 42.9032 41.5002 42.9032Z" fill="url(#paint4_linear_86_139)"/>
<path d="M57.139 42.9032C58.7036 42.9032 58.7062 40.4716 57.139 40.4716C55.5743 40.4716 55.5717 42.9032 57.139 42.9032Z" fill="url(#paint5_linear_86_139)"/>
<path d="M57.3314 13.4465C57.947 13.4465 58.5502 12.8266 58.5474 12.2253L58.5388 10.3038C58.532 8.77722 56.1001 8.71222 56.1072 10.3145L56.1158 12.236C56.1189 12.9057 56.6624 13.4465 57.3314 13.4465Z" fill="url(#paint6_linear_86_139)"/>
<path d="M52.2368 14.9159C53.3531 16.0202 55.0653 14.2941 53.9472 13.1875L52.5803 11.8349C51.4629 10.7293 49.7526 12.4575 50.8699 13.5633L52.2368 14.9159Z" fill="url(#paint7_linear_86_139)"/>
<path d="M49.4597 19.5567H49.4652L51.3896 19.5481C52.9251 19.5413 52.8809 17.1165 51.3789 17.1165L49.4545 17.125C47.8855 17.132 47.8915 19.5567 49.4597 19.5567Z" fill="url(#paint8_linear_86_139)"/>
<path d="M52.3455 21.7083L50.9908 23.073C49.8836 24.188 51.6079 25.9028 52.7164 24.7862L54.0712 23.4215C55.1789 22.3062 53.4529 20.5924 52.3455 21.7083Z" fill="url(#paint9_linear_86_139)"/>
<path d="M60.8709 21.5941C60.3987 22.0713 60.4025 22.841 60.88 23.3134L62.2469 24.6661C63.3631 25.7703 65.0753 24.0442 63.9573 22.9376C63.3664 22.1529 61.8844 20.57 60.8709 21.5941Z" fill="url(#paint10_linear_86_139)"/>
<path d="M62.2273 18.1739C62.2301 18.7766 62.8344 19.3843 63.4485 19.3843L65.3729 19.3757C66.9084 19.3689 66.8641 16.9441 65.3622 16.9441L63.4378 16.9527C62.7663 16.9558 62.2244 17.5026 62.2273 18.1739Z" fill="url(#paint11_linear_86_139)"/>
<path d="M61.6191 15.1513C61.9318 15.1513 62.2442 15.0315 62.4818 14.7921L63.8364 13.4275C64.944 12.3118 63.2181 10.5985 62.1108 11.7143L60.7562 13.0789C60.0385 13.8021 60.6009 15.1513 61.6191 15.1513Z" fill="url(#paint12_linear_86_139)"/>
<path d="M25.5039 4.8781C26.1195 4.8781 26.7227 4.2582 26.7199 3.65693L26.7113 1.73545C26.7045 0.208865 24.2725 0.143859 24.2797 1.74615L24.2883 3.66763C24.2913 4.3373 24.8349 4.8781 25.5039 4.8781Z" fill="url(#paint13_linear_86_139)"/>
<path d="M20.4095 6.34763C21.5258 7.45192 23.238 5.72578 22.1199 4.61922L20.753 3.26658C19.6358 2.16083 17.9254 3.88925 19.0426 4.99499L20.4095 6.34763Z" fill="url(#paint14_linear_86_139)"/>
<path d="M17.6323 10.9888H17.6378L19.5622 10.9802C21.0977 10.9734 21.0535 8.54858 19.5515 8.54858L17.6271 8.55718C16.0581 8.56431 16.0641 10.9888 17.6323 10.9888Z" fill="url(#paint15_linear_86_139)"/>
<path d="M20.518 13.1405L19.1634 14.5051C18.0564 15.6202 19.7806 17.3349 20.8891 16.2183L22.2437 14.8536C23.3512 13.738 21.6254 12.0247 20.518 13.1405Z" fill="url(#paint16_linear_86_139)"/>
<path d="M29.0437 13.0261C28.5713 13.5033 28.5753 14.2732 29.0527 14.7454L30.4197 16.0979C31.5356 17.2027 33.2483 15.4759 32.1301 14.3695L30.7632 13.017C30.2858 12.5444 29.5161 12.5487 29.0437 13.0261Z" fill="url(#paint17_linear_86_139)"/>
<path d="M30.3998 9.60537C30.4029 10.275 30.9464 10.8158 31.6155 10.8158H31.621L33.5454 10.8073C35.0809 10.8004 35.0366 8.37561 33.5347 8.37561L31.6103 8.3842C30.9388 8.38712 30.3969 8.93392 30.3998 9.60537Z" fill="url(#paint18_linear_86_139)"/>
<path d="M29.7916 6.58359C30.1041 6.58359 30.4167 6.46379 30.6543 6.22435L32.0091 4.85972C33.1168 3.74424 31.3906 2.03042 30.2834 3.14655L28.9287 4.51118C28.2107 5.23435 28.7735 6.58359 29.7916 6.58359Z" fill="url(#paint19_linear_86_139)"/>
<path d="M81.7842 75.0628H74.231V61.7332C74.231 57.2992 70.6387 53.6895 66.2116 53.6587V40.0404C66.2116 35.7532 62.8532 32.2371 58.6294 31.9809V17.5158C58.6294 16.8441 58.0852 16.2999 57.4136 16.2999C56.742 16.2999 56.1978 16.8441 56.1978 17.5158V31.9644H47.1565V18.3342C47.1565 17.6626 46.6123 17.1184 45.9407 17.1184H42.6962V12.7943C47.5366 11.4662 45.8189 6.61422 44.2299 3.58002C43.3944 1.98422 42.5717 0.637738 42.537 0.581162C41.8458 -0.193721 41.1544 -0.193721 40.4632 0.581162C40.4285 0.637738 39.6058 1.98422 38.7702 3.58002C37.1846 6.60758 35.4439 11.413 40.2647 12.7831V17.1184H37.0597C36.388 17.1184 35.8438 17.6626 35.8438 18.3342V31.9644H26.8025V8.94746C26.8025 7.37549 24.3709 7.37549 24.3709 8.94746V31.9809C20.147 32.2372 16.7887 35.7532 16.7887 40.0404V53.6587C12.3617 53.6895 8.76931 57.2992 8.76931 61.7332V75.0628H1.21582C0.544201 75.0628 0 75.607 0 76.2786C0 79.9848 3.01523 83 6.72138 83H76.2786C79.9848 83 83 79.9848 83 76.2786C83 75.6072 82.4558 75.0628 81.7842 75.0628ZM39.4099 8.43974C39.4099 6.88187 40.7872 4.91856 41.5019 3.62914C42.1916 4.86912 43.8576 7.25877 43.5092 8.80578C42.9911 11.1069 39.4099 11.0938 39.4099 8.43974ZM38.2752 24.5453H44.7247V26.969H38.2752V24.5453ZM44.7248 19.5501V22.1137H38.2753V19.5501H44.7248ZM38.2752 29.4006H44.7247V31.9642H38.2752V29.4006ZM24.8643 34.396H58.1357C60.9804 34.396 63.3389 36.5117 63.7237 39.2519C61.8948 39.7812 60.8669 41.4501 60.0129 42.8387C59.0216 44.4504 58.3524 45.4383 57.1387 45.4383C55.9248 45.4383 55.2556 44.4504 54.2643 42.8385C53.2346 41.1646 51.9533 39.0812 49.3187 39.0812C46.6843 39.0812 45.4029 41.1646 44.3732 42.8387C43.3819 44.4504 42.7129 45.4383 41.4992 45.4383C40.2856 45.4383 39.6165 44.4504 38.6252 42.8387C37.5956 41.1646 36.3143 39.0812 33.6798 39.0812C32.5756 39.0812 31.5797 39.4659 30.7197 40.2247C29.541 41.2648 31.1496 43.0882 32.3285 42.0481C32.748 41.678 33.1648 41.5128 33.6798 41.5128C34.8934 41.5128 35.5626 42.5007 36.5539 44.1124C37.5834 45.7865 38.8647 47.8699 41.4992 47.8699C44.1336 47.8699 45.4149 45.7865 46.4447 44.1124C47.436 42.5007 48.105 41.5128 49.3187 41.5128C50.5324 41.5128 51.2016 42.5007 52.1929 44.1124C53.2226 45.7865 54.5041 47.8699 57.1387 47.8699C59.7733 47.8699 61.0546 45.7865 62.0843 44.1124C62.7049 43.1034 63.1993 42.3391 63.7802 41.9084V53.6572H19.22V41.9085C19.8007 42.3392 20.295 43.1036 20.9155 44.1126C21.9451 45.7867 23.2264 47.8701 25.8608 47.8701C27.1507 47.8701 28.2487 47.37 29.2178 46.3409C30.2956 45.1966 28.5253 43.5293 27.4475 44.6738C26.9429 45.2099 26.4682 45.4384 25.8608 45.4384C24.6473 45.4384 23.9781 44.4506 22.9868 42.8389C22.133 41.4504 21.1049 39.7815 19.2763 39.252C19.6609 36.5116 22.0196 34.396 24.8643 34.396ZM16.8451 56.0889H18.004H64.9958H66.1547C68.9182 56.0889 71.2226 58.0856 71.7049 60.7117C69.263 61.2906 67.9256 63.4616 66.7265 65.4111C65.3139 67.7079 64.3252 69.1025 62.5094 69.1025C61.2979 69.1025 60.4097 68.8542 58.2921 65.4111C56.8941 63.1382 55.3096 60.5621 52.0036 60.5621C48.6977 60.5621 47.1132 63.1384 45.7153 65.4113C44.3027 67.7081 43.314 69.1027 41.4984 69.1027C40.2871 69.1027 39.3991 68.8543 37.2816 65.4113C35.8837 63.1384 34.2994 60.5621 30.9935 60.5621C27.6876 60.5621 26.1035 63.1384 24.7056 65.4113C23.2932 67.7081 22.3045 69.1027 20.4892 69.1027C19.2779 69.1027 18.3898 68.8543 16.2724 65.4113C15.0734 63.4618 13.7362 61.2908 11.2945 60.7119C11.7772 58.0856 14.0816 56.0889 16.8451 56.0889ZM76.2786 80.5684H6.72138C4.77817 80.5684 3.13244 79.2695 2.60704 77.4944H59.412C60.9839 77.4944 60.9839 75.0628 59.412 75.0628H11.2006V63.21C11.9655 63.5563 12.8229 64.4433 14.2016 66.685C15.5995 68.9579 17.1838 71.5342 20.4897 71.5342C23.7954 71.5342 25.3795 68.9579 26.7774 66.685C28.1898 64.3882 29.1786 62.9936 30.994 62.9936C32.2053 62.9936 33.0933 63.2419 35.2108 66.685C36.6087 68.9579 38.193 71.5342 41.4989 71.5342C44.8048 71.5342 46.3892 68.9579 47.7871 66.685C49.1997 64.3882 50.1884 62.9936 52.004 62.9936C53.2155 62.9936 54.1037 63.2419 56.2213 66.685C57.6193 68.9579 59.2038 71.534 62.5099 71.534C65.8159 71.534 67.4002 68.9578 68.7982 66.685C69.861 64.9571 70.6841 63.7403 71.7997 63.2432V75.0628H65.5698C63.9979 75.0628 63.9979 77.4944 65.5698 77.4944H80.3931C79.8676 79.2695 78.2218 80.5684 76.2786 80.5684Z" fill="url(#paint20_linear_86_139)"/>
<defs>
<linearGradient id="paint0_linear_86_139" x1="20.4715" y1="63.3987" x2="20.4715" y2="65.8303" gradientUnits="userSpaceOnUse">
<stop stop-color="#906FAC"/>
<stop offset="1" stop-color="#BB97C6"/>
</linearGradient>
<linearGradient id="paint1_linear_86_139" x1="41.5003" y1="63.3987" x2="41.5003" y2="65.8303" gradientUnits="userSpaceOnUse">
<stop stop-color="#906FAC"/>
<stop offset="1" stop-color="#BB97C6"/>
</linearGradient>
<linearGradient id="paint2_linear_86_139" x1="62.5291" y1="63.3987" x2="62.5291" y2="65.8303" gradientUnits="userSpaceOnUse">
<stop stop-color="#906FAC"/>
<stop offset="1" stop-color="#BB97C6"/>
</linearGradient>
<linearGradient id="paint3_linear_86_139" x1="25.8617" y1="40.4716" x2="25.8617" y2="42.9032" gradientUnits="userSpaceOnUse">
<stop stop-color="#906FAC"/>
<stop offset="1" stop-color="#BB97C6"/>
</linearGradient>
<linearGradient id="paint4_linear_86_139" x1="41.5003" y1="40.4716" x2="41.5003" y2="42.9032" gradientUnits="userSpaceOnUse">
<stop stop-color="#906FAC"/>
<stop offset="1" stop-color="#BB97C6"/>
</linearGradient>
<linearGradient id="paint5_linear_86_139" x1="57.139" y1="40.4716" x2="57.139" y2="42.9032" gradientUnits="userSpaceOnUse">
<stop stop-color="#906FAC"/>
<stop offset="1" stop-color="#BB97C6"/>
</linearGradient>
<linearGradient id="paint6_linear_86_139" x1="57.3273" y1="9.13574" x2="57.3273" y2="13.4465" gradientUnits="userSpaceOnUse">
<stop stop-color="#906FAC"/>
<stop offset="1" stop-color="#BB97C6"/>
</linearGradient>
<linearGradient id="paint7_linear_86_139" x1="52.4087" y1="11.4796" x2="52.4087" y2="15.2708" gradientUnits="userSpaceOnUse">
<stop stop-color="#906FAC"/>
<stop offset="1" stop-color="#BB97C6"/>
</linearGradient>
<linearGradient id="paint8_linear_86_139" x1="50.402" y1="17.1165" x2="50.402" y2="19.5567" gradientUnits="userSpaceOnUse">
<stop stop-color="#906FAC"/>
<stop offset="1" stop-color="#BB97C6"/>
</linearGradient>
<linearGradient id="paint9_linear_86_139" x1="52.531" y1="21.3457" x2="52.531" y2="25.149" gradientUnits="userSpaceOnUse">
<stop stop-color="#906FAC"/>
<stop offset="1" stop-color="#BB97C6"/>
</linearGradient>
<linearGradient id="paint10_linear_86_139" x1="62.4203" y1="21.2598" x2="62.4203" y2="25.0209" gradientUnits="userSpaceOnUse">
<stop stop-color="#906FAC"/>
<stop offset="1" stop-color="#BB97C6"/>
</linearGradient>
<linearGradient id="paint11_linear_86_139" x1="64.367" y1="16.9441" x2="64.367" y2="19.3843" gradientUnits="userSpaceOnUse">
<stop stop-color="#906FAC"/>
<stop offset="1" stop-color="#BB97C6"/>
</linearGradient>
<linearGradient id="paint12_linear_86_139" x1="62.3131" y1="11.3517" x2="62.3131" y2="15.1513" gradientUnits="userSpaceOnUse">
<stop stop-color="#906FAC"/>
<stop offset="1" stop-color="#BB97C6"/>
</linearGradient>
<linearGradient id="paint13_linear_86_139" x1="25.4998" y1="0.567383" x2="25.4998" y2="4.8781" gradientUnits="userSpaceOnUse">
<stop stop-color="#906FAC"/>
<stop offset="1" stop-color="#BB97C6"/>
</linearGradient>
<linearGradient id="paint14_linear_86_139" x1="20.5814" y1="2.91125" x2="20.5814" y2="6.70247" gradientUnits="userSpaceOnUse">
<stop stop-color="#906FAC"/>
<stop offset="1" stop-color="#BB97C6"/>
</linearGradient>
<linearGradient id="paint15_linear_86_139" x1="18.5746" y1="8.54858" x2="18.5746" y2="10.9888" gradientUnits="userSpaceOnUse">
<stop stop-color="#906FAC"/>
<stop offset="1" stop-color="#BB97C6"/>
</linearGradient>
<linearGradient id="paint16_linear_86_139" x1="20.7036" y1="12.7778" x2="20.7036" y2="16.5812" gradientUnits="userSpaceOnUse">
<stop stop-color="#906FAC"/>
<stop offset="1" stop-color="#BB97C6"/>
</linearGradient>
<linearGradient id="paint17_linear_86_139" x1="30.5931" y1="12.6653" x2="30.5931" y2="16.4529" gradientUnits="userSpaceOnUse">
<stop stop-color="#906FAC"/>
<stop offset="1" stop-color="#BB97C6"/>
</linearGradient>
<linearGradient id="paint18_linear_86_139" x1="32.5395" y1="8.37561" x2="32.5395" y2="10.8158" gradientUnits="userSpaceOnUse">
<stop stop-color="#906FAC"/>
<stop offset="1" stop-color="#BB97C6"/>
</linearGradient>
<linearGradient id="paint19_linear_86_139" x1="30.4857" y1="2.78381" x2="30.4857" y2="6.58359" gradientUnits="userSpaceOnUse">
<stop stop-color="#906FAC"/>
<stop offset="1" stop-color="#BB97C6"/>
</linearGradient>
<linearGradient id="paint20_linear_86_139" x1="41.5" y1="0" x2="41.5" y2="83" gradientUnits="userSpaceOnUse">
<stop stop-color="#906FAC"/>
<stop offset="1" stop-color="#BB97C6"/>
</linearGradient>
</defs>
</svg>
