<svg width="83" height="83" viewBox="0 0 83 83" fill="none" xmlns="http://www.w3.org/2000/svg">
<g id="Boy" clip-path="url(#clip0_86_115)">
<g id="Group 62">
<path id="Vector" d="M14.2054 36.7906C17.6407 36.7906 20.7607 35.0903 22.6243 32.3269C23.5304 33.1913 24.738 33.7422 26.0704 33.8049C28.5672 39.107 33.8516 42.486 39.7692 42.486H43.4794C49.3964 42.486 54.6833 39.1051 57.1795 33.8011C58.491 33.7206 59.6751 33.1621 60.5604 32.2984C62.4196 35.0808 65.5434 36.7906 69.0009 36.7906C70.1002 36.7906 70.9943 35.8965 70.9943 34.7972V21.1103C70.9943 16.4573 67.2094 12.6724 62.5564 12.6724H59.6352C59.14 11.5091 57.9856 10.6916 56.6438 10.6916H56.0568C55.4679 10.6916 54.8973 10.8556 54.4028 11.1488C51.6438 8.27581 47.7671 6.48438 43.4794 6.48438H39.7692C35.4733 6.48438 31.5903 8.28214 28.8307 11.164C28.331 10.8613 27.751 10.6916 27.1488 10.6916H26.5624C25.2206 10.6916 24.0662 11.5091 23.571 12.6724H20.6498C15.9974 12.6724 12.2119 16.4579 12.2119 21.1103V34.7972C12.2113 35.8965 13.106 36.7906 14.2054 36.7906ZM56.8521 31.353C56.7711 31.353 56.6793 31.3447 56.5628 31.3283C56.0023 31.2459 55.4597 31.56 55.2482 32.0844C53.2997 36.9103 48.6802 40.0284 43.4788 40.0284H39.7686C34.5621 40.0284 29.9407 36.9058 27.9954 32.073C27.8054 31.6012 27.3501 31.3029 26.8562 31.3029C26.784 31.3029 26.7106 31.3093 26.6377 31.3219C26.5238 31.3428 26.4212 31.353 26.3249 31.353C24.7203 31.353 23.4158 30.0479 23.4158 28.4439V27.0704C23.4158 26.1059 24.2004 25.3214 25.1648 25.3214H25.85C26.5288 25.3214 27.0791 24.7717 27.0791 24.0922V23.9517C29.4766 20.9096 33.1753 19.1048 37.0526 19.1048H46.1947C50.0727 19.1048 53.7708 20.9096 56.1689 23.9517V24.0922C56.1689 24.7711 56.7192 25.3214 57.398 25.3214H57.7032C58.8089 25.3214 59.7081 26.2206 59.7081 27.3268V28.4964C59.7087 30.0713 58.427 31.353 56.8521 31.353ZM68.5367 21.1103V34.3191C65.6808 34.1513 63.1833 32.4409 61.9941 29.837C62.1055 29.4083 62.1663 28.9593 62.1663 28.4964V27.3262C62.1663 26.3383 61.8402 25.4258 61.2943 24.6856C61.2943 24.6856 61.2804 22.3971 61.2519 22.1153C61.1848 21.4402 60.5813 20.9463 59.9069 21.0153C59.2319 21.0825 58.7392 21.6847 58.8063 22.3603C58.8266 22.5604 58.8367 22.765 58.8367 22.967V23.0138C58.7671 22.9955 58.698 22.9746 58.6271 22.96V21.6315C58.6271 20.8418 58.5657 20.0661 58.4492 19.3087C59.3262 18.7173 59.8942 17.7155 59.8942 16.6118V15.1294H62.5564C65.8537 15.1294 68.5367 17.8124 68.5367 21.1103ZM56.0568 13.1492H56.6438C57.0807 13.1492 57.436 13.5045 57.436 13.9408V15.7449C57.0491 14.8311 56.5748 13.9629 56.0245 13.1511C56.0353 13.1505 56.046 13.1492 56.0568 13.1492ZM39.7692 8.94198H43.4794C50.0429 8.94198 55.4584 13.9509 56.1043 20.3473C53.375 17.9929 49.8523 16.6472 46.1954 16.6472H37.0533C33.3957 16.6472 29.873 17.9929 27.1437 20.3473C27.7896 13.9509 33.2051 8.94198 39.7692 8.94198ZM26.5618 13.1492H27.1488C27.1735 13.1492 27.1975 13.1518 27.2216 13.1537C26.651 13.9952 26.1641 14.8976 25.7702 15.8475V13.9408C25.7702 13.5045 26.1255 13.1492 26.5618 13.1492ZM14.6695 21.1103C14.6695 17.8124 17.3519 15.1294 20.6498 15.1294H23.3126V16.6118C23.3126 17.7396 23.8952 18.7515 24.795 19.336C24.681 20.0851 24.6215 20.8513 24.6215 21.6315V22.8986C24.5367 22.9093 24.4531 22.9239 24.3701 22.9397C24.3708 22.7466 24.3802 22.5535 24.3992 22.3635C24.467 21.6885 23.9743 21.0863 23.2993 21.0185C22.6243 20.9507 22.0214 21.4434 21.9537 22.1184C21.9258 22.3983 21.9112 24.407 21.9112 24.407C21.316 25.1327 20.9582 26.0603 20.9582 27.0704V28.4439C20.9582 28.9593 21.0323 29.4577 21.1691 29.9301C19.9615 32.4789 17.4836 34.1525 14.6695 34.3191V21.1103Z" fill="url(#paint0_linear_86_115)"/>
<path id="Vector_2" d="M37.5328 25.9768C37.5328 26.9869 36.7146 27.805 35.7046 27.805C34.6952 27.805 33.8765 26.9869 33.8765 25.9768C33.8765 24.9675 34.6952 24.1487 35.7046 24.1487C36.7146 24.1487 37.5328 24.9675 37.5328 25.9768Z" fill="url(#paint1_linear_86_115)"/>
<path id="Vector_3" d="M49.3719 25.9768C49.3719 26.9869 48.5531 27.805 47.5437 27.805C46.5337 27.805 45.7156 26.9869 45.7156 25.9768C45.7156 24.9675 46.5337 24.1487 47.5437 24.1487C48.5531 24.1487 49.3719 24.9675 49.3719 25.9768Z" fill="url(#paint2_linear_86_115)"/>
<path id="Vector_4" d="M47.1416 29.1726H36.1074C35.5862 29.1726 35.0879 29.3949 34.7396 29.7837C34.3907 30.1719 34.2235 30.6924 34.2805 31.211C34.6902 34.9617 37.8475 37.7891 41.6242 37.7891C45.4014 37.7891 48.5588 34.9617 48.9685 31.211C49.0248 30.6924 48.8577 30.1719 48.5094 29.7831C48.1611 29.3949 47.6621 29.1726 47.1416 29.1726ZM41.6242 35.3315C39.3401 35.3315 37.3954 33.7826 36.8476 31.6302H46.4013C45.8536 33.7826 43.9089 35.3315 41.6242 35.3315Z" fill="url(#paint3_linear_86_115)"/>
<path id="Vector_5" d="M79.4603 57.1169V55.7884C79.4603 47.4359 72.6656 40.6406 64.3132 40.6406H60.603C52.2506 40.6406 45.4553 47.4359 45.4553 55.7884V57.0548C43.3916 57.3227 41.792 59.0913 41.792 61.2272V62.6001C41.792 65.4744 44.0628 67.8275 46.9048 67.9611C49.401 73.2632 54.6854 76.6422 60.603 76.6422H64.3132C70.2302 76.6422 75.5171 73.2613 78.0133 67.9573C80.792 67.7876 83.0001 65.4738 83.0001 62.6533V61.4831C83.0001 59.3389 81.4797 57.5431 79.4603 57.1169ZM60.603 43.0982H64.3132C70.8767 43.0982 76.2922 48.1078 76.9381 54.5041C74.2088 52.1491 70.6861 50.8035 67.0291 50.8035H57.887C54.2301 50.8035 50.7074 52.1491 47.9781 54.5041C48.6234 48.1078 54.0388 43.0982 60.603 43.0982ZM80.5425 62.6533C80.5425 64.2282 79.2614 65.5092 77.6859 65.5092C77.6049 65.5092 77.5131 65.5016 77.3965 65.4852C76.8361 65.4028 76.2941 65.7163 76.0819 66.2412C74.1334 71.0672 69.514 74.1846 64.3132 74.1846H60.603C55.3959 74.1846 50.7745 71.0621 48.8292 66.2298C48.6392 65.7581 48.1839 65.4592 47.69 65.4592C47.6178 65.4592 47.5443 65.4655 47.4715 65.4788C47.3575 65.4997 47.2556 65.5092 47.1587 65.5092C45.5547 65.5092 44.2496 64.2047 44.2496 62.6001V61.2272C44.2496 60.2628 45.0342 59.4782 45.9986 59.4782H46.6838C47.3626 59.4782 47.9129 58.928 47.9129 58.2491V58.1079C50.311 55.0665 54.0091 53.2617 57.887 53.2617H67.0285C70.9065 53.2617 74.6046 55.0665 77.0027 58.1079V58.2491C77.0027 58.928 77.5529 59.4782 78.2318 59.4782H78.537C79.6426 59.4782 80.5425 60.3774 80.5425 61.4831V62.6533Z" fill="url(#paint4_linear_86_115)"/>
<path id="Vector_6" d="M58.3669 60.1338C58.3669 61.1438 57.5481 61.962 56.5388 61.962C55.5287 61.962 54.71 61.1438 54.71 60.1338C54.71 59.1244 55.5287 58.3057 56.5388 58.3057C57.5481 58.3057 58.3669 59.1244 58.3669 60.1338Z" fill="url(#paint5_linear_86_115)"/>
<path id="Vector_7" d="M70.2054 60.1338C70.2054 61.1438 69.3873 61.962 68.3772 61.962C67.3672 61.962 66.5491 61.1438 66.5491 60.1338C66.5491 59.1244 67.3672 58.3057 68.3772 58.3057C69.3873 58.3057 70.2054 59.1244 70.2054 60.1338Z" fill="url(#paint6_linear_86_115)"/>
<path id="Vector_8" d="M67.9751 63.3291H56.9409C56.4197 63.3291 55.9213 63.552 55.5731 63.9402C55.2248 64.329 55.057 64.8495 55.114 65.3681C55.5237 69.1182 58.6804 71.9462 62.4576 71.9462C66.2349 71.9462 69.3922 69.1182 69.802 65.3688C69.8589 64.8495 69.6918 64.329 69.3435 63.9408C68.9946 63.552 68.4962 63.3291 67.9751 63.3291ZM62.4576 69.4886C60.1729 69.4886 58.2282 67.9391 57.6811 65.7873H67.2348C66.687 67.9391 64.7424 69.4886 62.4576 69.4886Z" fill="url(#paint7_linear_86_115)"/>
<path id="Vector_9" d="M37.6689 57.1163V55.7884C37.6689 47.4359 30.8736 40.6406 22.5212 40.6406H18.811C10.4586 40.6406 3.66329 47.4359 3.66329 55.7884V57.0555C1.59956 57.3227 0 59.092 0 61.2272V62.6001C0 65.4744 2.2708 67.8281 5.11278 67.9611C7.60901 73.2639 12.8934 76.6428 18.811 76.6428H22.5212C28.4388 76.6428 33.7251 73.2613 36.2213 67.9573C38.9993 67.7876 41.2081 65.4731 41.2081 62.6533V61.4831C41.2081 59.3389 39.6877 57.5431 37.6689 57.1163ZM38.7505 62.6533C38.7505 64.2282 37.4688 65.5092 35.8939 65.5092C35.8129 65.5092 35.7211 65.5016 35.6045 65.4852C35.0454 65.4028 34.5014 65.7163 34.2899 66.2412C32.3415 71.0672 27.722 74.1846 22.5205 74.1846H18.8104C13.6039 74.1846 8.98251 71.0621 7.03719 66.2298C6.84722 65.7581 6.39192 65.4592 5.898 65.4592C5.82581 65.4592 5.75298 65.4655 5.67953 65.4788C5.56554 65.4997 5.46296 65.5092 5.36671 65.5092C3.76271 65.5092 2.4576 64.2047 2.4576 62.6001V61.2272C2.4576 60.2628 3.24219 59.4782 4.20661 59.4782H4.89178C5.57061 59.4782 6.1209 58.928 6.1209 58.2491V58.1079C8.51898 55.0665 12.2171 53.2617 16.0951 53.2617H25.2371C26.0724 53.2617 26.907 53.3428 27.7182 53.5036C28.3837 53.636 29.0302 53.2028 29.1626 52.5373C29.2943 51.8718 28.8618 51.2246 28.1956 51.0929C27.228 50.901 26.232 50.8035 25.2371 50.8035H16.0951C12.4381 50.8035 8.91538 52.1491 6.18549 54.5041C6.83139 48.1078 12.2469 43.0982 18.811 43.0982H22.5212C29.0828 43.0982 34.497 48.1046 35.1454 54.4978C34.5793 54.0077 33.9777 53.5574 33.3401 53.1522C32.767 52.7887 32.0077 52.9584 31.6436 53.5315C31.2801 54.1046 31.4499 54.8638 32.0229 55.2273C33.247 56.0043 34.3159 56.975 35.2107 58.1123V58.2491C35.2107 58.928 35.761 59.4776 36.4398 59.4776H36.745C37.8506 59.4776 38.7505 60.3774 38.7505 61.4831V62.6533Z" fill="url(#paint8_linear_86_115)"/>
<path id="Vector_10" d="M16.5749 60.1338C16.5749 61.1438 15.7561 61.962 14.7468 61.962C13.7367 61.962 12.918 61.1438 12.918 60.1338C12.918 59.1244 13.7367 58.3057 14.7468 58.3057C15.7561 58.3057 16.5749 59.1244 16.5749 60.1338Z" fill="url(#paint9_linear_86_115)"/>
<path id="Vector_11" d="M28.4134 60.1338C28.4134 61.1438 27.5953 61.962 26.5852 61.962C25.5759 61.962 24.7571 61.1438 24.7571 60.1338C24.7571 59.1244 25.5759 58.3057 26.5852 58.3057C27.5953 58.3057 28.4134 59.1244 28.4134 60.1338Z" fill="url(#paint10_linear_86_115)"/>
<path id="Vector_12" d="M26.1831 63.3291H15.1489C14.6277 63.3291 14.1294 63.552 13.7811 63.9402C13.4322 64.329 13.265 64.8495 13.322 65.3681C13.7317 69.1182 16.889 71.9462 20.6657 71.9462C24.4429 71.9462 27.6003 69.1182 28.01 65.3681C28.0663 64.8495 27.8992 64.329 27.5509 63.9402C27.2026 63.552 26.7042 63.3291 26.1831 63.3291ZM20.6657 69.4886C18.3816 69.4886 16.4369 67.9391 15.8891 65.7873H25.4428C24.8951 67.9397 22.9504 69.4886 20.6657 69.4886Z" fill="url(#paint11_linear_86_115)"/>
</g>
</g>
<defs>
<linearGradient id="paint0_linear_86_115" x1="41.6031" y1="6.48437" x2="41.6031" y2="42.486" gradientUnits="userSpaceOnUse">
<stop stop-color="#906FAC"/>
<stop offset="1" stop-color="#BB97C6"/>
</linearGradient>
<linearGradient id="paint1_linear_86_115" x1="35.7046" y1="24.1487" x2="35.7046" y2="27.805" gradientUnits="userSpaceOnUse">
<stop stop-color="#906FAC"/>
<stop offset="1" stop-color="#BB97C6"/>
</linearGradient>
<linearGradient id="paint2_linear_86_115" x1="47.5437" y1="24.1487" x2="47.5437" y2="27.805" gradientUnits="userSpaceOnUse">
<stop stop-color="#906FAC"/>
<stop offset="1" stop-color="#BB97C6"/>
</linearGradient>
<linearGradient id="paint3_linear_86_115" x1="41.6244" y1="29.1726" x2="41.6244" y2="37.7891" gradientUnits="userSpaceOnUse">
<stop stop-color="#906FAC"/>
<stop offset="1" stop-color="#BB97C6"/>
</linearGradient>
<linearGradient id="paint4_linear_86_115" x1="62.396" y1="40.6406" x2="62.396" y2="76.6422" gradientUnits="userSpaceOnUse">
<stop stop-color="#906FAC"/>
<stop offset="1" stop-color="#BB97C6"/>
</linearGradient>
<linearGradient id="paint5_linear_86_115" x1="56.5384" y1="58.3057" x2="56.5384" y2="61.962" gradientUnits="userSpaceOnUse">
<stop stop-color="#906FAC"/>
<stop offset="1" stop-color="#BB97C6"/>
</linearGradient>
<linearGradient id="paint6_linear_86_115" x1="68.3772" y1="58.3057" x2="68.3772" y2="61.962" gradientUnits="userSpaceOnUse">
<stop stop-color="#906FAC"/>
<stop offset="1" stop-color="#BB97C6"/>
</linearGradient>
<linearGradient id="paint7_linear_86_115" x1="62.458" y1="63.3291" x2="62.458" y2="71.9462" gradientUnits="userSpaceOnUse">
<stop stop-color="#906FAC"/>
<stop offset="1" stop-color="#BB97C6"/>
</linearGradient>
<linearGradient id="paint8_linear_86_115" x1="20.604" y1="40.6406" x2="20.604" y2="76.6428" gradientUnits="userSpaceOnUse">
<stop stop-color="#906FAC"/>
<stop offset="1" stop-color="#BB97C6"/>
</linearGradient>
<linearGradient id="paint9_linear_86_115" x1="14.7464" y1="58.3057" x2="14.7464" y2="61.962" gradientUnits="userSpaceOnUse">
<stop stop-color="#906FAC"/>
<stop offset="1" stop-color="#BB97C6"/>
</linearGradient>
<linearGradient id="paint10_linear_86_115" x1="26.5852" y1="58.3057" x2="26.5852" y2="61.962" gradientUnits="userSpaceOnUse">
<stop stop-color="#906FAC"/>
<stop offset="1" stop-color="#BB97C6"/>
</linearGradient>
<linearGradient id="paint11_linear_86_115" x1="20.6659" y1="63.3291" x2="20.6659" y2="71.9462" gradientUnits="userSpaceOnUse">
<stop stop-color="#906FAC"/>
<stop offset="1" stop-color="#BB97C6"/>
</linearGradient>
<clipPath id="clip0_86_115">
<rect width="83" height="83" fill="white"/>
</clipPath>
</defs>
</svg>
