<svg width="70" height="64" viewBox="0 0 70 64" fill="none" xmlns="http://www.w3.org/2000/svg">
<g id="Frame 21">
<g id="Group">
<path id="Vector" d="M20.4026 41.4903C21.9377 41.4903 23.1821 40.2459 23.1821 38.7109C23.1821 37.1758 21.9377 35.9314 20.4026 35.9314C18.8676 35.9314 17.6232 37.1758 17.6232 38.7109C17.6232 40.2459 18.8676 41.4903 20.4026 41.4903Z" fill="url(#paint0_linear_86_138)"/>
<path id="Vector_2" d="M49.5971 41.4903C51.1321 41.4903 52.3765 40.2459 52.3765 38.7109C52.3765 37.1758 51.1321 35.9314 49.5971 35.9314C48.062 35.9314 46.8176 37.1758 46.8176 38.7109C46.8176 40.2459 48.062 41.4903 49.5971 41.4903Z" fill="url(#paint1_linear_86_138)"/>
<path id="Vector_3" d="M70 37.5312C70 33.5051 67.0816 30.1501 63.2496 29.4645V28.2497C63.2496 12.6727 50.5769 0 35.0001 0C19.4231 0 6.75043 12.6727 6.75043 28.2497V29.4645C2.91836 30.1503 0 33.5053 0 37.5312C0 41.5921 2.96864 44.9707 6.84936 45.6157C7.39556 51.8398 10.2432 56.4373 15.3393 59.2983C19.8713 61.8427 26.3022 63.0794 35.0001 63.0794C43.6978 63.0794 50.1289 61.8425 54.6609 59.2983C59.7568 56.4373 62.6044 51.84 63.1506 45.6157C67.0314 44.9709 70 41.5921 70 37.5312ZM2.89377 37.5312C2.89377 35.1086 4.5273 33.0616 6.75025 32.4301V42.6324C4.5273 42.001 2.89377 39.954 2.89377 37.5312ZM60.3558 43.3387C60.3558 49.6932 58.0296 54.0883 53.2442 56.775C49.1562 59.0701 43.1885 60.1856 35.0001 60.1856C26.8116 60.1856 20.8438 59.0701 16.756 56.775C11.9704 54.0883 9.6442 49.6932 9.6442 43.3387V28.2497C9.6442 16.7996 17.2738 7.09967 27.7154 3.96193C35.6702 4.06248 39.9067 9.8048 39.9067 13.9628C39.9067 17.1474 37.3158 19.7384 34.1311 19.7384C31.743 19.7384 29.8 17.7954 29.8 15.4073C29.8 13.6564 31.2245 12.2318 32.9755 12.2318C33.7746 12.2318 34.4224 11.5839 34.4224 10.7849C34.4224 9.98584 33.7746 9.338 32.9755 9.338C29.6289 9.338 26.9062 12.0607 26.9062 15.4073C26.9062 19.3911 30.1472 22.6321 34.1311 22.6321C38.9114 22.6321 42.8004 18.7431 42.8004 13.9628C42.8004 10.9596 41.2915 7.72852 38.7642 5.31946C37.7531 4.35584 36.6029 3.54577 35.3477 2.89829C49.169 3.0853 60.3558 14.3847 60.3558 28.2497V43.3387ZM63.2496 42.6326V32.4302C65.4727 33.0618 67.1062 35.1088 67.1062 37.5314C67.1062 39.954 65.4725 42.001 63.2496 42.6326Z" fill="url(#paint2_linear_86_138)"/>
<path id="Vector_4" d="M40.5957 42.696C37.5104 45.7816 32.4895 45.7816 29.4042 42.696C28.839 42.131 27.9231 42.131 27.358 42.696C26.793 43.261 26.793 44.1772 27.358 44.7422C29.4648 46.8491 32.2325 47.9026 35 47.9026C37.7676 47.9026 40.5351 46.8491 42.6421 44.7422C43.2071 44.1772 43.2071 43.261 42.6421 42.696C42.0767 42.131 41.1609 42.131 40.5957 42.696Z" fill="url(#paint3_linear_86_138)"/>
</g>
</g>
<defs>
<linearGradient id="paint0_linear_86_138" x1="20.4026" y1="35.9314" x2="20.4026" y2="41.4903" gradientUnits="userSpaceOnUse">
<stop stop-color="#906FAC"/>
<stop offset="1" stop-color="#BB97C6"/>
</linearGradient>
<linearGradient id="paint1_linear_86_138" x1="49.5971" y1="35.9314" x2="49.5971" y2="41.4903" gradientUnits="userSpaceOnUse">
<stop stop-color="#906FAC"/>
<stop offset="1" stop-color="#BB97C6"/>
</linearGradient>
<linearGradient id="paint2_linear_86_138" x1="35" y1="0" x2="35" y2="63.0794" gradientUnits="userSpaceOnUse">
<stop stop-color="#906FAC"/>
<stop offset="1" stop-color="#BB97C6"/>
</linearGradient>
<linearGradient id="paint3_linear_86_138" x1="35" y1="42.2722" x2="35" y2="47.9026" gradientUnits="userSpaceOnUse">
<stop stop-color="#906FAC"/>
<stop offset="1" stop-color="#BB97C6"/>
</linearGradient>
</defs>
</svg>
