<svg width="62" height="79" viewBox="0 0 62 79" fill="none" xmlns="http://www.w3.org/2000/svg">
<g id="Frame 23">
<g id="Group">
<g id="Group_2">
<path id="Vector" d="M59.5509 25.9463C59.5496 25.9463 59.5487 25.9463 59.5476 25.9463C57.5773 25.9463 55.7246 26.7135 54.331 28.1064C52.9365 29.5004 52.1685 31.3538 52.1685 33.3254V36.877C52.1685 37.5162 52.6865 38.0342 53.3258 38.0342C53.965 38.0342 54.483 37.5162 54.483 36.877V33.3254C54.483 31.972 55.0101 30.7 55.9672 29.7434C56.9093 28.8016 58.1573 28.2765 59.487 28.2611V49.1348C59.4872 49.5236 59.3356 49.8893 59.0604 50.1644L47.7737 61.4511C46.7814 62.4435 46.2349 63.7628 46.2349 65.1659V66.0258H34.4698C34.2204 64.3386 33.7963 62.6341 33.2011 60.9428C32.0118 57.5631 32.8793 53.7433 35.411 51.2119L43.8268 42.7961C43.9515 42.6713 44.2357 42.605 44.4427 42.6361C45.2659 43.5437 45.7163 44.7083 45.7163 45.9422C45.7163 47.2584 45.2039 48.4959 44.273 49.4266L41.7987 51.9009C41.0079 52.6918 41.0079 53.9788 41.7987 54.7697L43.1541 56.1251C43.945 56.9157 45.2317 56.916 46.0229 56.1251L53.4241 48.7239C54.1068 48.041 54.4828 47.1331 54.4828 46.1677V42.2774C54.4828 41.6381 53.9649 41.1202 53.3256 41.1202C52.6864 41.1202 52.1684 41.6381 52.1684 42.2774V46.1677C52.1684 46.515 52.0331 46.8416 51.7873 47.0873L44.5884 54.2862L43.6376 53.3352L45.9096 51.063C47.2775 49.6954 48.0308 47.8767 48.0308 45.9422C48.0308 44.0078 47.2775 42.1893 45.9098 40.8214C45.8218 40.7336 45.7202 40.6603 45.6091 40.6048C44.5204 40.0604 43.0508 40.2991 42.1902 41.1597L33.7745 49.5755C32.4232 50.9266 31.4534 52.5725 30.9007 54.3431C30.348 52.5725 29.3783 50.9266 28.0271 49.5755L19.6113 41.1597C18.7509 40.2994 17.2813 40.0606 16.1924 40.6048C16.0811 40.6603 15.9796 40.7336 15.8917 40.8214C14.5238 42.1893 13.7705 44.0078 13.7705 45.9422C13.7705 47.8767 14.5238 49.6954 15.8917 51.063L18.1638 53.3354L17.2129 54.2863L10.0139 47.0874C9.76823 46.8418 9.63291 46.5153 9.63291 46.1678V33.3257C9.63291 31.3541 8.86497 29.5007 7.47059 28.1068C6.07683 26.7138 4.22434 25.9466 2.25381 25.9466C2.25273 25.9466 2.25165 25.9466 2.25057 25.9466C1.00956 25.9472 0 26.9583 0 28.2004V49.1348C0 50.1419 0.392223 51.0888 1.10446 51.8014L4.2785 54.9752C4.73043 55.427 5.46319 55.4272 5.91497 54.9751C6.36691 54.5232 6.36691 53.7905 5.91497 53.3386L2.74108 50.1649C2.46582 49.8898 2.3143 49.5239 2.3143 49.1348V28.2611C3.64403 28.2766 4.89214 28.8016 5.83427 29.7434C6.79138 30.7 7.31846 31.972 7.31846 33.3254V46.1675C7.31846 47.1331 7.69448 48.041 8.37724 48.7237L15.7784 56.1249C16.5693 56.9157 17.8562 56.9157 18.6471 56.1249L20.0024 54.7696C20.7934 53.9786 20.7934 52.6916 20.0024 51.9009L17.528 49.4263C16.5973 48.4957 16.0847 47.2582 16.0847 45.9421C16.0847 44.7082 16.5351 43.5435 17.3582 42.636C17.5658 42.605 17.8498 42.6713 17.9745 42.796L26.3903 51.2118C28.9219 53.7433 29.7893 57.563 28.6 60.9427C28.0049 62.6338 27.5807 64.3384 27.3314 66.0257H15.5661V65.1658C15.5661 63.7624 15.0196 62.4431 14.0273 61.4508L9.7332 57.1568C9.28127 56.7051 8.54851 56.7051 8.09673 57.1568C7.64479 57.6089 7.64479 58.3415 8.09673 58.7935L12.3907 63.0872C12.9458 63.6426 13.2516 64.3807 13.2516 65.1658V66.0269C11.773 66.0389 10.5735 67.2446 10.5735 68.726V76.2998C10.5735 77.7886 11.7849 79 13.2737 79H29.3578C29.9314 79 30.4628 78.8189 30.9007 78.5126C31.3386 78.8189 31.87 79 32.4437 79H48.5276C50.0164 79 51.2278 77.7886 51.2278 76.2998V68.7262C51.2278 67.2448 50.0283 66.0391 48.5497 66.0271V65.1659C48.5497 64.3809 48.8553 63.6429 49.4106 63.0876L60.6973 51.8009C61.4097 51.0883 61.8018 50.1413 61.8016 49.1345V28.2003C61.8016 26.958 60.792 25.9469 59.5509 25.9463ZM30.9007 66.5134C30.5446 66.2642 30.1262 66.0991 29.6736 66.046C29.9058 64.6086 30.2751 63.1562 30.7836 61.7111C30.825 61.5938 30.8635 61.4758 30.9009 61.3576C30.9382 61.4758 30.9768 61.5937 31.018 61.7111C31.5266 63.1565 31.8958 64.6088 32.128 66.046C31.6753 66.0991 31.257 66.2642 30.9007 66.5134ZM29.3578 76.6856H13.274C13.0614 76.6856 12.8883 76.5126 12.8883 76.2998V68.7262C12.8883 68.5134 13.0614 68.3404 13.274 68.3404H29.3578C29.5704 68.3404 29.7435 68.5134 29.7435 68.7262V76.2998C29.7435 76.5126 29.5705 76.6856 29.3578 76.6856ZM48.9133 68.7262V76.2998C48.9133 76.5126 48.7404 76.6856 48.5276 76.6856H32.4437C32.2309 76.6856 32.058 76.5126 32.058 76.2998V68.7262C32.058 68.5134 32.2309 68.3404 32.4437 68.3404H48.5276C48.7402 68.3404 48.9133 68.5134 48.9133 68.7262Z" fill="url(#paint0_linear_86_149)"/>
<path id="Vector_2" d="M15.2543 25.7406C15.1544 25.1092 14.5622 24.6781 13.93 24.779C13.2988 24.879 12.8683 25.4719 12.9684 26.1032C13.6381 30.3252 15.7998 34.195 19.0548 36.9996C22.3452 39.8347 26.5521 41.3958 30.9007 41.3958C40.9131 41.3958 49.0588 33.25 49.0588 23.2376C49.0588 23.237 49.0588 23.2362 49.0588 23.2354C49.4206 23.2694 49.7868 23.2888 50.1572 23.2888C56.5778 23.2888 61.8016 18.0652 61.8016 11.6443C61.8016 5.22341 56.5778 0 50.1572 0C45.3126 0 41.1512 2.97454 39.3992 7.19255C36.7911 5.80773 33.8848 5.07961 30.9007 5.07961C26.5581 5.07961 22.3557 6.63708 19.0675 9.46503C15.8149 12.2624 13.6509 16.1239 12.9742 20.338C12.8728 20.9691 13.3022 21.5628 13.9333 21.6642C13.9954 21.6741 14.0572 21.679 14.1181 21.679C14.6764 21.679 15.1679 21.274 15.2593 20.7051C15.8495 17.0299 17.7378 13.6613 20.5767 11.2199C23.4452 8.7528 27.1116 7.39406 30.9007 7.39406C33.6604 7.39406 36.344 8.10676 38.7214 9.45932C38.5864 10.1675 38.5128 10.8975 38.5128 11.6445C38.5128 16.8742 41.9786 21.309 46.7337 22.7745C46.7383 22.9296 46.7443 23.0854 46.7443 23.2376C46.7443 31.9739 39.637 39.0814 30.9007 39.0814C27.1064 39.0814 23.4359 37.7194 20.5656 35.2463C17.7246 32.7984 15.8385 29.4226 15.2543 25.7406ZM40.8272 11.6445C40.8272 6.49991 45.0127 2.31445 50.1572 2.31445C55.3018 2.31445 59.4871 6.49991 59.4871 11.6445C59.4871 16.789 55.3018 20.9745 50.1572 20.9745C45.0127 20.9745 40.8272 16.789 40.8272 11.6445Z" fill="url(#paint1_linear_86_149)"/>
<path id="Vector_3" d="M19.9623 26.7094C19.9623 30.9314 23.3972 34.3663 27.6193 34.3663C30.5717 34.3663 33.2923 32.6396 34.5504 29.967C34.8226 29.3887 34.5745 28.6993 33.9962 28.4271C33.418 28.1551 32.7285 28.4029 32.4563 28.9814C31.5784 30.8467 29.6796 32.0519 27.6193 32.0519C24.6734 32.0519 22.2767 29.6553 22.2767 26.7094C22.2767 24.1608 24.0709 22.0247 26.462 21.4944V24.1147C26.462 25.4376 27.5384 26.514 28.8614 26.514H35.0187C35.192 26.514 35.3455 26.6179 35.4102 26.7788L37.579 32.1816C37.755 32.6203 38.1801 32.9078 38.6529 32.9078H40.682C41.3213 32.9078 41.8393 32.3898 41.8393 31.7505C41.8393 31.1113 41.3213 30.5933 40.682 30.5933H39.4353L37.5581 25.9167C37.1395 24.8735 36.1428 24.1996 35.0187 24.1996H28.8614C28.8146 24.1996 28.7765 24.1614 28.7765 24.1147V21.3809L28.9562 21.5801C29.2929 21.9531 29.7742 22.1672 30.2766 22.1672H33.9129C34.5521 22.1672 35.0701 21.6492 35.0701 21.0099C35.0701 20.3707 34.5521 19.8527 33.9129 19.8527H30.515L28.7766 17.926V17.3242C30.3725 16.8296 31.535 15.3397 31.535 13.5833C31.535 11.4242 29.7785 9.66772 27.6194 9.66772C25.4603 9.66772 23.7038 11.4242 23.7038 13.5833C23.7038 15.3397 24.8663 16.8296 26.4622 17.3242V19.14C22.787 19.6993 19.9623 22.8806 19.9623 26.7094ZM27.6193 11.982C28.5021 11.982 29.2204 12.7003 29.2204 13.5832C29.2204 14.466 28.5021 15.1843 27.6193 15.1843C26.7364 15.1843 26.0181 14.466 26.0181 13.5832C26.0181 12.7003 26.7362 11.982 27.6193 11.982Z" fill="url(#paint2_linear_86_149)"/>
<path id="Vector_4" d="M47.23 10.1999C47.8692 10.1999 48.3872 9.6819 48.3872 9.04264V7.33057C48.3872 6.69131 47.8692 6.17334 47.23 6.17334C46.5907 6.17334 46.0728 6.69131 46.0728 7.33057V9.0428C46.0728 9.6819 46.5909 10.1999 47.23 10.1999Z" fill="url(#paint3_linear_86_149)"/>
<path id="Vector_5" d="M53.0845 10.1999C53.7237 10.1999 54.2417 9.6819 54.2417 9.04264V7.33057C54.2417 6.69131 53.7237 6.17334 53.0845 6.17334C52.4452 6.17334 51.9272 6.69131 51.9272 7.33057V9.0428C51.9272 9.6819 52.4452 10.1999 53.0845 10.1999Z" fill="url(#paint4_linear_86_149)"/>
<path id="Vector_6" d="M55.1147 13.1194C55.1147 12.4801 54.5967 11.9622 53.9574 11.9622C53.3182 11.9622 52.8002 12.4801 52.8002 13.1194C52.8002 14.5767 51.6146 15.7623 50.1573 15.7623C48.6999 15.7623 47.5142 14.5767 47.5142 13.1194C47.5142 12.4801 46.9962 11.9622 46.3569 11.9622C45.7177 11.9622 45.1997 12.4801 45.1997 13.1194C45.1997 15.8529 47.4236 18.0768 50.1573 18.0768C52.8908 18.0768 55.1147 15.8529 55.1147 13.1194Z" fill="url(#paint5_linear_86_149)"/>
</g>
</g>
</g>
<defs>
<linearGradient id="paint0_linear_86_149" x1="30.9008" y1="25.9463" x2="30.9008" y2="79" gradientUnits="userSpaceOnUse">
<stop stop-color="#906FAC"/>
<stop offset="1" stop-color="#BB97C6"/>
</linearGradient>
<linearGradient id="paint1_linear_86_149" x1="37.3778" y1="0" x2="37.3778" y2="41.3958" gradientUnits="userSpaceOnUse">
<stop stop-color="#906FAC"/>
<stop offset="1" stop-color="#BB97C6"/>
</linearGradient>
<linearGradient id="paint2_linear_86_149" x1="30.9008" y1="9.66772" x2="30.9008" y2="34.3663" gradientUnits="userSpaceOnUse">
<stop stop-color="#906FAC"/>
<stop offset="1" stop-color="#BB97C6"/>
</linearGradient>
<linearGradient id="paint3_linear_86_149" x1="47.23" y1="6.17334" x2="47.23" y2="10.1999" gradientUnits="userSpaceOnUse">
<stop stop-color="#906FAC"/>
<stop offset="1" stop-color="#BB97C6"/>
</linearGradient>
<linearGradient id="paint4_linear_86_149" x1="53.0845" y1="6.17334" x2="53.0845" y2="10.1999" gradientUnits="userSpaceOnUse">
<stop stop-color="#906FAC"/>
<stop offset="1" stop-color="#BB97C6"/>
</linearGradient>
<linearGradient id="paint5_linear_86_149" x1="50.1572" y1="11.9622" x2="50.1572" y2="18.0768" gradientUnits="userSpaceOnUse">
<stop stop-color="#906FAC"/>
<stop offset="1" stop-color="#BB97C6"/>
</linearGradient>
</defs>
</svg>
