<svg width="67" height="67" viewBox="0 0 67 67" fill="none" xmlns="http://www.w3.org/2000/svg">
<g id="Warning">
<g id="Group">
<g id="Group_2">
<path id="Vector" d="M65.6079 50.3121L41.94 6.80452C38.1374 0.402747 28.8677 0.394242 25.0599 6.80452L1.39324 50.3121C-2.49406 56.8536 2.21229 65.1373 9.83132 65.1373H57.1679C64.7805 65.1373 69.4952 56.8603 65.6079 50.3121ZM33.5 57.2857C31.3358 57.2857 29.5742 55.5241 29.5742 53.36C29.5742 51.1958 31.3358 49.4342 33.5 49.4342C35.6641 49.4342 37.4258 51.1958 37.4258 53.36C37.4258 55.5241 35.6641 57.2857 33.5 57.2857ZM37.4258 41.5826C37.4258 43.7468 35.6641 45.5084 33.5 45.5084C31.3358 45.5084 29.5742 43.7468 29.5742 41.5826V21.9537C29.5742 19.7896 31.3358 18.0279 33.5 18.0279C35.6641 18.0279 37.4258 19.7896 37.4258 21.9537V41.5826Z" fill="url(#paint0_linear_86_156)"/>
</g>
</g>
</g>
<defs>
<linearGradient id="paint0_linear_86_156" x1="33.5" y1="2" x2="33.5" y2="65.1373" gradientUnits="userSpaceOnUse">
<stop stop-color="#906FAC"/>
<stop offset="1" stop-color="#BB97C6"/>
</linearGradient>
</defs>
</svg>
