<svg width="83" height="12" viewBox="0 0 83 12" fill="none" xmlns="http://www.w3.org/2000/svg">
<g id="Frame" clip-path="url(#clip0_9_291)">
<g id="Group">
<path id="Vector" d="M52.0412 11.7878C50.2926 11.7489 48.6433 11.418 47.2127 10.3863C44.1923 8.14763 44.5301 3.63142 47.9479 1.85997C50.5708 0.497324 53.3328 0.497324 55.9955 1.80157C58.0024 2.7749 59.0158 4.46847 58.8767 6.70711C58.7376 8.90682 57.4659 10.3279 55.459 11.1844C54.3462 11.6321 53.1937 11.7684 52.0412 11.7878ZM53.6309 8.98468C54.0084 8.82895 54.5648 8.59536 55.0218 8.01136C55.3 7.6415 55.459 7.19377 55.5384 6.68765C55.6577 5.65593 55.3199 4.76047 54.4456 4.15701C53.154 3.26156 51.7233 3.22262 50.2727 3.78715C49.1401 4.25434 48.544 5.1498 48.544 6.33725C48.544 6.96018 48.7029 7.50524 49.0209 7.95296C49.3786 8.45909 49.8554 8.69269 50.1734 8.86788C51.8425 9.66601 53.5116 9.02362 53.6309 8.98468Z" fill="black"/>
<path id="Vector_2" d="M22.4339 5.81164C22.4339 7.75828 22.4339 9.58813 22.4339 11.418C21.4007 11.418 20.4469 11.418 19.4335 11.418C19.4335 8.01134 19.4335 4.62419 19.4335 1.15916C20.3674 1.15916 21.2814 1.1397 22.1955 1.17863C22.3346 1.17863 22.4935 1.33436 22.5929 1.45116C24.2223 3.10581 25.8517 4.76045 27.4811 6.4151C27.5804 6.51243 27.6798 6.5903 27.8586 6.76549C27.8586 4.85778 27.8586 3.04741 27.8586 1.1981C28.872 1.1981 29.8457 1.1981 30.8591 1.1981C30.8591 4.58525 30.8591 7.99188 30.8591 11.4374C29.9649 11.4374 29.0906 11.4569 28.2163 11.418C28.0573 11.418 27.8785 11.2622 27.7593 11.1454C26.1299 9.51026 24.5005 7.87508 22.8711 6.2399C22.7916 6.1231 22.6525 6.02577 22.4339 5.81164Z" fill="black"/>
<path id="Vector_3" d="M45.1461 1.1787C43.5167 2.85281 41.9072 4.50745 40.2579 6.20103C41.9072 7.87515 43.6359 9.62712 45.464 11.457C44.4506 11.457 43.5565 11.3791 42.6623 11.4764C41.5694 11.5932 40.8342 11.2039 40.1387 10.3863C39.3638 9.47139 38.5093 8.6538 37.635 7.83621C37.3966 7.62208 36.9793 7.60262 36.562 7.46635C36.562 8.8874 36.562 10.1333 36.562 11.418C35.4691 11.418 34.4358 11.418 33.3827 11.418C33.3827 8.03088 33.3827 4.64372 33.3827 1.21763C34.416 1.21763 35.4492 1.21763 36.5223 1.21763C36.5223 2.48295 36.5223 3.7288 36.5223 4.99411C37.0389 5.13038 37.4363 5.09145 37.794 4.70212C38.8471 3.57307 39.94 2.50241 41.0528 1.41229C41.172 1.29549 41.3309 1.1787 41.4899 1.1787C42.6822 1.15923 43.9141 1.1787 45.1461 1.1787Z" fill="black"/>
<path id="Vector_4" d="M82.5427 5.59753C82.5427 6.37619 82.5427 7.09645 82.5427 7.8751C80.2377 7.8751 77.9526 7.8751 75.6476 7.8751C75.6476 9.06255 75.6476 10.2111 75.6476 11.3985C74.5745 11.3985 73.5413 11.3985 72.4683 11.3985C72.4683 8.01137 72.4683 4.62421 72.4683 1.19812C75.9655 1.19812 79.4627 1.19812 82.9997 1.19812C82.9997 2.03518 82.9997 2.87223 82.9997 3.76769C80.5755 3.76769 78.1314 3.76769 75.6873 3.76769C75.6873 4.41008 75.6873 4.97461 75.6873 5.59753C77.9526 5.59753 80.2377 5.59753 82.5427 5.59753Z" fill="black"/>
<path id="Vector_5" d="M70.5209 5.59753C70.5209 6.39566 70.5209 7.09645 70.5209 7.85564C68.2358 7.85564 65.9507 7.85564 63.6258 7.85564C63.6258 9.06255 63.6258 10.2305 63.6258 11.418C62.5528 11.418 61.5195 11.418 60.4664 11.418C60.4664 8.01137 60.4664 4.62421 60.4664 1.19812C63.9636 1.19812 67.4608 1.19812 70.9779 1.19812C70.9779 2.03518 70.9779 2.8917 70.9779 3.76769C68.5537 3.76769 66.1295 3.76769 63.6655 3.76769C63.6655 4.39061 63.6655 4.97461 63.6655 5.59753C65.9308 5.59753 68.1961 5.59753 70.5209 5.59753Z" fill="black"/>
<path id="Vector_6" d="M12.3397 1.19812C12.3397 2.03518 12.3595 2.85277 12.3198 3.65089C12.3198 3.74822 12.0814 3.90395 11.9423 3.90395C10.75 3.92342 9.55778 3.92342 8.36554 3.92342C8.1867 3.92342 8.02774 3.92342 7.80916 3.92342C7.80916 6.43459 7.80916 8.90682 7.80916 11.3985C6.69641 11.3985 5.62339 11.3985 4.51064 11.3985C4.51064 8.92629 4.51064 6.47352 4.51064 3.94289C2.9806 3.94289 1.51017 3.94289 0 3.94289C0 2.98903 0 2.11304 0 1.19812C4.09335 1.19812 8.1867 1.19812 12.3397 1.19812Z" fill="black"/>
<path id="Vector_7" d="M16.9497 11.418C15.8568 11.418 14.8036 11.418 13.7108 11.418C13.7108 8.01137 13.7108 4.62421 13.7108 1.19812C14.7838 1.19812 15.8568 1.19812 16.9497 1.19812C16.9497 4.60474 16.9497 7.9919 16.9497 11.418Z" fill="black"/>
</g>
</g>
<defs>
<clipPath id="clip0_9_291">
<rect width="82.9798" height="10.9596" fill="white" transform="translate(0 0.828247)"/>
</clipPath>
</defs>
</svg>
