<svg width="60" height="22" viewBox="0 0 60 22" fill="none" xmlns="http://www.w3.org/2000/svg">
<g id="Group">
<path id="Vector" d="M11.0802 22C5.24416 22 0.407589 17.0787 0.336201 11.2279C0.264812 5.23119 4.90506 0.0182771 11.098 5.00978e-05C17.0232 -0.0181769 21.842 4.93956 21.842 11.0091C21.842 17.0787 17.0232 22 11.0802 22ZM11.9725 12.6313C11.3479 12.1757 10.7411 11.7564 10.1521 11.319C9.49177 10.8086 9.0099 10.1707 8.84927 9.2958C8.63511 8.05637 8.99205 7.07211 9.8844 6.57999C10.7232 6.10608 11.6513 6.17899 12.615 6.21545C12.615 10.0431 12.615 13.8161 12.615 17.6073C13.3824 17.6073 14.0963 17.6073 14.8281 17.6073C14.8281 13.1964 14.8281 8.8219 14.8281 4.41098C14.3462 4.41098 13.8822 4.41098 13.436 4.41098C12.4008 4.4292 11.3657 4.39275 10.3306 4.52034C9.04559 4.66615 7.92122 5.21296 7.18949 6.36126C6.15436 7.96524 6.38637 10.4076 7.7249 11.8476C8.17108 12.3215 8.6708 12.7589 9.17052 13.2146C8.20678 14.6728 7.26088 16.1309 6.26144 17.6438C7.08241 17.6438 7.83199 17.6438 8.56372 17.6438C8.65295 17.6438 8.76004 17.5526 8.81358 17.4615C9.86656 15.8575 10.9195 14.2535 11.9725 12.6313Z" fill="black"/>
<path id="Vector_2" d="M38.3508 19.0472C37.4406 19.0472 36.5304 19.0472 35.5845 19.0472C35.5845 14.2718 35.5845 9.53276 35.5845 4.7573C33.889 4.7573 32.2292 4.7573 30.5337 4.7573C30.5337 9.51454 30.5337 14.2718 30.5337 19.0472C29.57 19.0472 28.6598 19.0472 27.7318 19.0472C27.7318 13.5245 27.7318 8.03815 27.7318 2.51538C31.2655 2.51538 34.7992 2.51538 38.3508 2.51538C38.3508 8.01992 38.3508 13.5245 38.3508 19.0472Z" fill="black"/>
<path id="Vector_3" d="M53.271 7.09041C53.271 9.53282 53.271 11.957 53.271 14.4723C53.3781 14.3083 53.4495 14.2172 53.503 14.126C54.788 11.8841 56.073 9.62396 57.3401 7.38204C57.4651 7.16332 57.59 7.05396 57.8755 7.05396C58.5716 7.07218 59.2498 7.05396 59.9636 7.05396C59.9636 11.0639 59.9636 15.0191 59.9636 19.0291C59.0891 19.0291 58.2146 19.0291 57.3044 19.0291C57.3044 16.6049 57.3044 14.1807 57.3044 11.7747C57.2866 11.7747 57.2687 11.7565 57.2509 11.7565C56.9832 12.2304 56.7155 12.7043 56.4299 13.1782C55.3591 15.0374 54.2883 16.9147 53.2353 18.7921C53.1104 19.0108 52.9854 19.102 52.7356 19.0838C52.0395 19.0655 51.3435 19.0838 50.6296 19.0838C50.6296 15.0738 50.6296 11.1003 50.6296 7.10864C51.4863 7.09041 52.3608 7.09041 53.271 7.09041Z" fill="black"/>
<path id="Vector_4" d="M45.7395 11.8476C45.5789 10.3165 44.8115 9.35049 43.6335 9.13176C42.9018 9.00417 42.1701 9.09531 41.474 9.35049C41.1528 9.47808 40.8316 9.62389 40.4568 9.76971C40.4568 9.0224 40.4568 8.29332 40.4746 7.56424C40.4746 7.47311 40.5995 7.34552 40.7066 7.30907C42.4913 6.68935 44.2582 6.57999 46.0072 7.45488C47.0245 7.96524 47.7384 8.80368 48.1489 9.86084C48.9698 11.9752 48.9877 14.1442 48.2203 16.2767C47.7205 17.662 46.7389 18.5916 45.329 19.0108C43.9726 19.4118 42.5984 19.4665 41.2242 19.0472C40.2783 18.7556 40.2783 18.7374 40.2783 17.7531C40.2783 17.3157 40.2783 16.8782 40.2783 16.4408C40.2783 16.4225 40.2961 16.4043 40.3318 16.3496C40.9743 16.7689 41.6704 17.0605 42.4378 17.0787C42.8483 17.0969 43.2766 17.0969 43.6871 17.024C44.633 16.86 45.2219 16.2221 45.5253 15.3289C45.6503 14.9462 45.7395 14.5452 45.8644 14.0895C44.4724 14.0895 43.1338 14.0895 41.7596 14.0895C41.7596 13.324 41.7596 12.6131 41.7596 11.8658C43.0624 11.8476 44.401 11.8476 45.7395 11.8476Z" fill="black"/>
<path id="Vector_5" d="M54.2347 2.51542C54.3953 3.35386 54.6631 3.66372 55.2877 3.68195C55.8588 3.70017 56.073 3.46322 56.3228 2.49719C57.0724 2.49719 57.822 2.49719 58.5716 2.49719C58.6787 3.80953 57.822 4.95783 56.4656 5.32237C55.609 5.55932 54.7344 5.52287 53.8956 5.24946C52.682 4.8667 51.9681 3.82776 51.9681 2.49719C52.7177 2.51542 53.4851 2.51542 54.2347 2.51542Z" fill="black"/>
</g>
</svg>
